 

NOTE: I had to upload this torrent Disc #3 a second time because the first torrent is frozen at 95.5% and nobody's seeding.I encountered a torrent error early on and could no longer seed! My Apologies...  



MISSION:IMPOSSIBLE  The 1988 TV SEASON  4 Episodes (Disc #3) 

EPISODES: 

#9- The Haunting 
The police think the son of a wealthy and influential Hawaiian family is responsible for a slew of murders in the U.S. Jim Phelps and his team get the mission to find the evidence that will prove his guilt...or innocence. 

#10- The Lions 
A Prince and his uncle battle it out for the throne.Jim Phelps and the IMF Agents get the mission to make sure it's not a battle to the death. 

#11- The Greek 
Jim and his team must neutralizea greek tycoon who runs an international black market drug ring. 

#12- The Fortune 
A dictator seeks asylum in the United States after stealing all of his countrys funds.Now, the team must locate the money and steal it back. 

INFO: 

Format                                   : MPEG-4
Format profile                           : Base Media / Version 2
Codec ID                                 : mp42
Overall bit rate mode                    : Variable
Overall bit rate                         : 2 061 Kbps

Video
ID                                       : 1
Format                                   : AVC
Format/Info                              : Advanced Video Codec
Format profile                           : Main@L3.0
Format settings, CABAC                   : Yes
Format settings, ReFrames                : 2 frames
Codec ID                                 : avc1
Codec ID/Info                            : Advanced Video Coding
Duration                                 : 47mn 50s
Bit rate mode                            : Variable
Bit rate                                 : 1 860 Kbps
Maximum bit rate                         : 7 343 Kbps
Width                                    : 720 pixels
Height                                   : 480 pixels
Display aspect ratio                     : 4:3
Original display aspect ratio            : 4:3
Frame rate mode                          : Constant
Frame rate                               : 29.970 fps
Standard                                 : NTSC
Color space                              : YUV
Chroma subsampling                       : 4:2:0
Bit depth                                : 8 bits
Scan type                                : Progressive
Bits/(Pixel*Frame)                       : 0.180
Stream size                              : 637 MiB (90%)
Language                                 : English

Audio
ID                                       : 2
Format                                   : AAC
Format/Info                              : Advanced Audio Codec
Format profile                           : LC
Codec ID                                 : 40
Bit rate mode                            : Variable
Bit rate                                 : 192 Kbps
Maximum bit rate                         : 234 Kbps
Channel(s)                               : 2 channels
Channel positions                        : Front: L R
Sampling rate                            : 48.0 KHz
Compression mode                         : Lossy
Stream size                              : 65.7 MiB (9%)
Title                                    : eng
Language                                 : English

Size: 2.82GB











